<?xml version="1.0" encoding="UTF-8"?>
<svg version="1.1" xmlns="http://www.w3.org/2000/svg" width="32" height="32">
<path d="M0 0 C7.26 0 14.52 0 22 0 C26.96286107 10.04676754 26.96286107 10.04676754 27.09375 13.40625 C25.34175232 17.56098734 22.17117072 20.24319964 18.9375 23.3125 C18.27427734 23.95767578 17.61105469 24.60285156 16.92773438 25.26757812 C15.29382329 26.85447018 13.65131853 28.43126328 12 30 C7.62128618 27.98716092 4.62119821 25.13386348 1.1875 21.8125 C0.57712891 21.26013672 -0.03324219 20.70777344 -0.66210938 20.13867188 C-3.69169401 17.1978913 -4.96354437 15.91347394 -5.13671875 11.57421875 C-4 8 -4 8 0 0 Z " fill="#50AB92" transform="translate(5,1)"/>
<path d="M0 0 C5.28 0 10.56 0 16 0 C16 1.32 16 2.64 16 4 C14.02 4 12.04 4 10 4 C10 5.65 10 7.3 10 9 C11.98 9 13.96 9 16 9 C16 8.34 16 7.68 16 7 C16.66 7 17.32 7 18 7 C17.67 7.99 17.34 8.98 17 10 C14.69 10.33 12.38 10.66 10 11 C10 13.31 10 15.62 10 18 C8.68 18 7.36 18 6 18 C6 15.69 6 13.38 6 11 C3.69 10.67 1.38 10.34 -1 10 C-1.33 9.01 -1.66 8.02 -2 7 C-1.34 7 -0.68 7 0 7 C0 7.66 0 8.32 0 9 C1.98 9 3.96 9 6 9 C6 7.35 6 5.7 6 4 C4.02 4 2.04 4 0 4 C0 2.68 0 1.36 0 0 Z " fill="#BCDFD5" transform="translate(8,6)"/>
<path d="M0 0 C4.62 0 9.24 0 14 0 C14 0.66 14 1.32 14 2 C12.35 2.33 10.7 2.66 9 3 C8.67 4.32 8.34 5.64 8 7 C7.34 7 6.68 7 6 7 C6 5.35 6 3.7 6 2 C4.02 2 2.04 2 0 2 C0 1.34 0 0.68 0 0 Z " fill="#FDFDFD" transform="translate(9,7)"/>
<path d="M0 0 C1.32 0 2.64 0 4 0 C4 2.64 4 5.28 4 8 C2.68 8 1.36 8 0 8 C0 5.36 0 2.72 0 0 Z " fill="#F3F9F8" transform="translate(14,16)"/>
<path d="M0 0 C0.33 0.66 0.66 1.32 1 2 C2.98 2 4.96 2 7 2 C6.67 2.99 6.34 3.98 6 5 C4.02 5 2.04 5 0 5 C0 3.35 0 1.7 0 0 Z " fill="#63B69F" transform="translate(18,10)"/>
<path d="M0 0 C0.33 0 0.66 0 1 0 C1 1.65 1 3.3 1 5 C-0.98 5 -2.96 5 -5 5 C-5.33 4.01 -5.66 3.02 -6 2 C-4.02 2 -2.04 2 0 2 C0 1.34 0 0.68 0 0 Z " fill="#63B69F" transform="translate(13,10)"/>
</svg>
